<svg width="12" height="12" viewBox="0 0 12 12" fill="none" xmlns="http://www.w3.org/2000/svg">
<path d="M6.70312 6.01562L11.3438 1.375C11.4375 1.25 11.4844 1.125 11.4844 1C11.4844 0.875 11.4375 0.75 11.3438 0.625C11.25 0.53125 11.125 0.484375 10.9688 0.484375C10.8438 0.484375 10.7344 0.53125 10.6406 0.625L6 5.3125L1.35938 0.625C1.26562 0.53125 1.14062 0.484375 0.984375 0.484375C0.859375 0.484375 0.75 0.53125 0.65625 0.625C0.5625 0.75 0.515625 0.875 0.515625 1C0.515625 1.125 0.5625 1.25 0.65625 1.375L5.29688 6.01562L0.65625 10.6562C0.5625 10.75 0.515625 10.875 0.515625 11.0312C0.515625 11.1562 0.5625 11.2656 0.65625 11.3594C0.6875 11.3906 0.734375 11.4219 0.796875 11.4531C0.859375 11.4844 0.921875 11.5 0.984375 11.5C1.04688 11.5 1.10938 11.4844 1.17188 11.4531C1.23438 11.4219 1.29688 11.3906 1.35938 11.3594L6 6.71875L10.6406 11.3594C10.7031 11.3906 10.7656 11.4219 10.8281 11.4531C10.8906 11.4844 10.9531 11.5 11.0156 11.5C11.0781 11.5 11.1406 11.4844 11.2031 11.4531C11.2656 11.4219 11.3125 11.3906 11.3438 11.3594C11.4375 11.2656 11.4844 11.1562 11.4844 11.0312C11.4844 10.875 11.4375 10.75 11.3438 10.6562L6.70312 6.01562Z" fill="#8991A9"/>
</svg>
